<?xml version="1.0" encoding="UTF-8" standalone="no"?>
<!DOCTYPE svg PUBLIC "-//W3C//DTD SVG 1.1//EN" "http://www.w3.org/Graphics/SVG/1.1/DTD/svg11.dtd">
<svg width="100%" height="100%" viewBox="0 0 225 225" version="1.1" xmlns="http://www.w3.org/2000/svg" xmlns:xlink="http://www.w3.org/1999/xlink" xml:space="preserve" xmlns:serif="http://www.serif.com/" style="fill-rule:evenodd;clip-rule:evenodd;stroke-linecap:round;stroke-linejoin:round;stroke-miterlimit:1.5;">
    <g id="Background" transform="matrix(0.978261,0,0,1.0274,0.978261,-9.24658)">
        <rect x="0" y="0" width="225" height="225" style="fill:rgb(217,0,0);"/>
    </g>
    <g id="AMC-Logo" serif:id="AMC Logo" transform="matrix(1.11111,0,0,1.11111,-12.2177,-11.9444)">
        <path d="M181.692,69.077C166.891,45.39 140.931,31 113,31C68.295,31 32,67.295 32,112C32,156.705 68.295,193 113,193C140.429,193 165.994,179.119 180.932,156.116C165.994,179.119 140.429,193 113,193C68.295,193 32,156.705 32,112C32,67.295 68.295,31 113,31C140.931,31 166.891,45.39 181.692,69.077Z" style="fill:white;fill-opacity:0;stroke:white;stroke-width:4.95px;"/>
        <path d="M80,109L95,82L143,162" style="fill:none;stroke:white;stroke-width:4.95px;"/>
        <circle cx="113" cy="66" r="8" style="fill:white;fill-opacity:0;stroke:white;stroke-width:5.4px;"/>
        <path d="M147,109L131,82L84,162L99,137" style="fill:none;stroke:white;stroke-width:4.95px;"/>
        <g transform="matrix(0.964286,0,0,1,4.53571,-1)">
            <path d="M99,137L127,137" style="fill:none;stroke:white;stroke-width:5.04px;"/>
        </g>
    </g>
</svg>
